# Alias OBJ Model File
# Exported from SketchUp, (c) 2000-2012 Trimble Navigation Limited
# File units = inches

mtllib pen lepas persegi pasak.mtl

g Mesh1 Model

usemtl FrontColor
v -1.86669 -3.6875 -1.97733
vt -1.97733 -3.6875
vn -1 0 -0
v -1.86669 -3.6875 1.95967
vt 1.95967 -3.6875
v -1.86669 4.18652 1.95967
vt 1.95967 4.18652
v -1.86669 4.18652 -1.97733
vt -1.97733 4.18652
f 1/1/1 2/2/1 3/3/1 4/4/1 

v 2.07031 -3.6875 1.95967
vt -2.07031 -1.95967
vn 0 -1 -0
vt 1.86669 -1.95967
vt 1.86669 1.97733
v 2.07031 -3.6875 -1.97733
vt -2.07031 1.97733
f 5/5/2 2/6/2 1/7/2 6/8/2 

vt -1.86669 -3.6875
vn 0 0 1
vt 2.07031 -3.6875
v 2.07031 4.18652 1.95967
vt 2.07031 4.18652
vt -1.86669 4.18652
f 2/9/3 5/10/3 7/11/3 3/12/3 

vt -1.95967 -3.6875
vn 1 0 -0
vt 1.97733 -3.6875
v 2.07031 4.18652 -1.97733
vt 1.97733 4.18652
vt -1.95967 4.18652
f 5/13/4 6/14/4 8/15/4 7/16/4 

vt -2.07031 -3.6875
vn 0 0 -1
vt 1.86669 -3.6875
vt 1.86669 4.18652
vt -2.07031 4.18652
f 6/17/5 1/18/5 4/19/5 8/20/5 

vt -1.86669 -1.95967
vn 0 1 -0
vt 2.07031 -1.95967
vt 2.07031 1.97733
vt -1.86669 1.97733
f 3/21/6 7/22/6 8/23/6 4/24/6 

