# Alias OBJ Model File
# Exported from SketchUp, (c) 2000-2012 Trimble Navigation Limited
# File units = meters

mtllib pen ekor burung.mtl

g Mesh1 Model

usemtl FrontColor
v 0.0708475 0.17 -0.255148
vt 7.87878 6.69291
vn 0.903398 0 -0.428803
v 0.176552 0.17 -0.0324516
vt -1.82635 6.69291
v 0.176552 0.1 -0.0324516
vt -1.82635 3.93701
v 0.0708475 0.1 -0.255148
vt 7.87878 3.93701
f 1/1/1 2/2/1 3/3/1 4/4/1 

v 0.29922 0.17 -0.266764
vt 11.7803 10.5025
vn 0 1 -0
vt 2.78927 10.0452
vt 6.95086 1.27762
v -0.123061 0.17 -0.0172123
vt -4.84491 0.67765
v -0.0414353 0.17 -0.249437
vt -1.63131 9.82037
v -0.290019 0.17 -0.236794
vt -11.4181 9.32258
v -0.26462 0.17 0.262561
vt -10.4181 -10.337
v 0.324619 0.17 0.23259
vt 12.7803 -9.1571
f 5/5/2 1/6/2 2/7/2 6/8/2 7/9/2 8/10/2 9/11/2 10/12/2 

vt -3.29595 6.69291
vn -0.0507977 -8.69751e-15 -0.998709
vt -12.2986 6.69291
v 0.29922 -0.13 -0.266764
vt -12.2986 -5.11811
v -0.290019 -0.13 -0.236794
vt 10.9297 -5.11811
vt 10.9297 6.69291
vt 1.13035 6.69291
v -0.0414353 0.1 -0.249437
vt 1.13035 3.93701
vt -3.29595 3.93701
f 1/13/3 5/14/3 11/15/3 12/16/3 8/17/3 7/18/3 13/19/3 4/20/3 

v 0.324619 -0.13 0.23259
vt -9.79448 -5.11811
vn 0.998709 0 -0.0507977
vt 9.89056 -5.11811
vt 9.89056 6.69291
vt -9.79448 6.69291
f 14/21/4 11/22/4 5/23/4 10/24/4 

v -0.26462 -0.13 0.262561
vt 10.4181 -10.337
vn 0 -1 -0
vt 11.4181 9.32258
vt -11.7803 10.5025
vt -12.7803 -9.1571
f 15/25/5 12/26/5 11/27/5 14/28/5 

vt 9.79448 6.69291
vn -0.998709 -1.12952e-32 0.0507977
vt -9.89056 6.69291
vt -9.89056 -5.11811
vt 9.79448 -5.11811
f 9/29/6 8/30/6 12/31/6 15/32/6 

vt -10.9297 -5.11811
vn 0.0507977 0 0.998709
vt 12.2986 -5.11811
vt 12.2986 6.69291
vt -10.9297 6.69291
f 15/33/7 14/34/7 10/35/7 9/36/7 

vt 0.967288 6.69291
vn -0.943418 0 -0.331605
vt -8.72377 6.69291
vt -8.72377 3.93701
v -0.123061 0.1 -0.0172123
vt 0.967288 3.93701
f 6/37/8 7/38/8 13/39/8 16/40/8 

vt -2.78927 10.0452
vt -6.95086 1.27762
vt 4.84491 0.67765
vt 1.63131 9.82037
f 4/41/5 3/42/5 16/43/5 13/44/5 

vt 7.00679 6.69291
vt -4.80423 6.69291
vt -4.80423 3.93701
vt 7.00679 3.93701
f 2/45/7 6/46/7 16/47/7 3/48/7 

