# Alias OBJ Model File
# Exported from SketchUp, (c) 2000-2012 Trimble Navigation Limited
# File units = inches

mtllib sambunganbibirlurus atas.mtl

g Mesh1 Model

usemtl FrontColor
v -3.22162 -4.8125 -20.2272
vt -20.2272 -4.8125
vn -1 -1.20319e-14 -0
v -3.22162 -4.8125 19.1429
vt 19.1429 -4.8125
v -3.22162 1.09301 19.1429
vt 19.1429 1.09301
v -3.22162 1.09301 -20.2272
vt -20.2272 1.09301
f 1/1/1 2/2/1 3/3/1 4/4/1 

v 12.0599 -4.8125 19.1429
vt -12.0599 -19.1429
vn 2.7898e-15 -1 -0
vt 3.22162 -19.1429
vt 3.22162 20.2272
v 12.0599 -4.8125 -20.2272
vt -12.0599 20.2272
f 5/5/2 2/6/2 1/7/2 6/8/2 

v 12.0599 6.99852 19.1429
vt 12.0599 6.99852
vn 0 0 1
v -11.1684 6.99852 19.1429
vt -11.1684 6.99852
v -11.1684 1.09301 19.1429
vt -11.1684 1.09301
vt -3.22162 1.09301
vt -3.22162 -4.8125
vt 12.0599 -4.8125
f 7/9/3 8/10/3 9/11/3 3/12/3 2/13/3 5/14/3 

vt -11.1684 -19.1429
vn 2.44716e-15 1 -0
vt 12.0599 -19.1429
v 12.0599 6.99852 -20.2272
vt 12.0599 20.2272
v -11.1684 6.99852 -20.2272
vt -11.1684 20.2272
f 8/15/4 7/16/4 10/17/4 11/18/4 

vt 20.2272 6.99852
vn 1 -7.21911e-15 -0
vt -19.1429 6.99852
vt -19.1429 -4.8125
vt 20.2272 -4.8125
f 10/19/5 7/20/5 5/21/5 6/22/5 

vt 11.1684 6.99852
vn 0 0 -1
vt -12.0599 6.99852
vt -12.0599 -4.8125
vt 3.22162 -4.8125
vt 3.22162 1.09301
v -11.1684 1.09301 -20.2272
vt 11.1684 1.09301
f 11/23/6 10/24/6 6/25/6 1/26/6 4/27/6 12/28/6 

vt 11.1684 20.2272
vn -5.81182e-15 -1 -0
vt 11.1684 -19.1429
f 12/29/7 4/7/7 3/6/7 9/30/7 

vt 19.1429 6.99852
vn -1 -4.81274e-15 -0
vt -20.2272 6.99852
f 8/31/8 11/32/8 12/4/8 9/3/8 

