# Alias OBJ Model File
# Exported from SketchUp, (c) 2000-2012 Trimble Navigation Limited
# File units = inches

mtllib Tangga.mtl

g Mesh1 Model

usemtl FrontColor
v -20.6518 -6.375 108.674
vt -20.6518 -6.375
vn 0 0 1
v -20.6518 -2.43799 108.674
vt -20.6518 -2.43799
v -87.5809 -2.43799 108.674
vt -87.5809 -2.43799
v -87.5809 -6.375 108.674
vt -87.5809 -6.375
f 1/1/1 2/2/1 3/3/1 4/4/1 

v -20.6518 5.43602 116.548
vt 116.548 5.43602
vn -1 4.31324e-15 2.34439e-15
v -20.6518 5.43602 98.8314
vt 98.8314 5.43602
v -20.6518 1.49902 98.8314
vt 98.8314 1.49902
v -20.6518 1.49902 102.768
vt 102.768 1.49902
v -20.6518 -2.43799 102.768
vt 102.768 -2.43799
vt 108.674 -2.43799
vt 108.674 -6.375
v -20.6518 -6.375 128.359
vt 128.359 -6.375
v -20.6518 -2.43799 128.359
vt 128.359 -2.43799
v -20.6518 -2.43799 122.453
vt 122.453 -2.43799
v -20.6518 1.49902 122.453
vt 122.453 1.49902
v -20.6518 1.49902 116.548
vt 116.548 1.49902
f 5/5/2 6/6/2 7/7/2 8/8/2 9/9/2 2/10/2 1/11/2 10/12/2 11/13/2 12/14/2 13/15/2 14/16/2 

v 18.7183 5.43602 10.2487
vt 18.7183 -10.2487
vn 1.51022e-16 1 -2.20917e-17
vt -20.6518 -98.8314
vt -20.6518 -116.548
f 15/17/3 6/18/3 5/19/3

v -20.6518 5.43602 10.2487
vt -20.6518 -10.2487
f 16/20/3 6/18/3 15/17/3

v -87.5809 5.43602 88.9889
vt -87.5809 -88.9889
f 17/21/3 6/18/3 16/20/3

v -87.5809 5.43602 98.8314
vt -87.5809 -98.8314
f 6/18/3 17/21/3 18/22/3

v -87.5809 -6.375 88.9889
vt 88.9889 -6.375
vn -1 0 -0
v -87.5809 -2.43799 102.768
v -87.5809 1.49902 102.768
v -87.5809 1.49902 98.8314
vt 88.9889 5.43602
f 19/23/4 4/11/4 3/10/4 20/9/4 21/8/4 22/7/4 18/6/4 17/24/4 

vt 87.5809 -88.9889
vn -1.74124e-16 -1 -1.00366e-16
v -20.6518 -6.375 -29.1213
vt 20.6518 29.1213
vt 87.5809 -108.674
f 19/25/5 23/26/5 4/27/5

v -91.518 -6.375 -99.9875
vt 91.518 99.9875
f 24/28/5 23/26/5 19/25/5

v 89.5844 -6.375 -107.862
vt -89.5844 107.862
f 24/28/5 25/29/5 23/26/5

v -91.518 -6.375 -107.862
vt 91.518 107.862
f 25/29/5 24/28/5 26/30/5

v -91.518 1.49902 -103.924
vt -103.924 1.49902
vn -1 4.38922e-13 4.38922e-13
v -91.518 -2.43799 -103.924
vt -103.924 -2.43799
v -91.518 -2.43799 -107.862
vt -107.862 -2.43799
vt -107.862 -6.375
vt -99.9875 -6.375
v -91.518 1.49902 -99.9875
vt -99.9875 1.49902
f 27/31/6 28/32/6 29/33/6 26/34/6 24/35/6 30/36/6 

vt 91.518 1.49902
vn 0 0 -1
v 89.5844 1.49902 -103.924
vt -89.5844 1.49902
v 89.5844 -2.43799 -103.924
vt -89.5844 -2.43799
vt 91.518 -2.43799
f 27/37/7 31/38/7 32/39/7 28/40/7 

vt -91.518 99.9875
vn -2.45214e-18 1 1.12799e-16
v 89.5844 1.49902 -99.9875
vt 89.5844 99.9875
vt 89.5844 103.924
vt -91.518 103.924
f 30/41/8 33/42/8 31/43/8 27/44/8 

v -91.518 5.43602 -99.9875
vt 91.518 5.43602
v 89.5844 5.43602 -99.9875
vt -89.5844 5.43602
v -91.518 1.49902 -99.9875
vt 91.518 -6.375
v -99.392 -6.375 -99.9875
vt 99.392 -6.375
v -99.392 -2.43799 -99.9875
vt 99.392 -2.43799
v -95.455 -2.43799 -99.9875
vt 95.455 -2.43799
v -95.455 1.49902 -99.9875
vt 95.455 1.49902
f 30/37/7 34/45/7 35/46/7 33/38/7 36/37/7 24/47/7 37/48/7 38/49/7 39/50/7 40/51/7 

v -91.518 5.43602 88.9889
vt -99.9875 5.43602
v -91.518 1.49902 88.9889
vt 88.9889 1.49902
f 41/24/4 34/52/4 30/36/4 42/53/4 

vt -91.518 -88.9889
f 17/21/3 34/41/3 41/54/3

v -20.6518 5.43602 -29.1213
vt -20.6518 29.1213
f 34/41/3 17/21/3 43/55/3

f 43/55/3 17/21/3 16/20/3

v -20.6518 5.43602 -28.3339
vt -20.6518 28.3339
f 44/56/3 43/55/3 16/20/3

v -20.6518 -6.375 -28.3339
vt 28.3339 -6.375
vn 1 0 -7.21911e-14
vt 29.1213 -6.375
vt 29.1213 5.43602
vt 28.3339 5.43602
f 45/57/9 23/58/9 43/59/9 44/60/9 

vt 20.6518 28.3339
v -20.6518 -6.375 10.2487
vt 20.6518 -10.2487
f 45/61/5 46/62/5 23/26/5

vt -10.2487 -6.375
vn 1 0 1.47329e-15
vt -10.2487 5.43602
f 46/63/10 45/57/10 44/60/10 16/64/10 

v 18.7183 -6.375 10.2487
vt -18.7183 -6.375
vt 20.6518 -6.375
vt 20.6518 5.43602
vt -18.7183 5.43602
f 47/65/7 46/66/7 16/67/7 15/68/7 

vt 20.6518 -108.674
vt -18.7183 -10.2487
f 1/69/5 46/62/5 47/70/5

f 4/27/5 46/62/5 1/69/5

f 46/62/5 4/27/5 23/26/5

vt 20.6518 -128.359
f 1/69/5 47/70/5 10/71/5

v 28.5608 -6.375 128.359
vt -28.5608 -128.359
f 10/71/5 47/70/5 48/72/5

v 28.5608 -6.375 108.674
vt -28.5608 -108.674
f 48/72/5 47/70/5 49/73/5

f 47/70/5 25/29/5 49/73/5

v 18.7183 -6.375 -29.1213
vt -18.7183 29.1213
f 50/74/5 25/29/5 47/70/5

f 23/26/5 25/29/5 50/74/5

vn -5.77529e-15 0 1
vt 18.7183 -6.375
v 18.7183 5.43602 -29.1213
vt 18.7183 5.43602
vt -20.6518 5.43602
f 23/1/11 50/75/11 51/76/11 43/77/11 

vt -29.1213 -6.375
vn -1 0 1.44382e-15
vt 10.2487 -6.375
vt 10.2487 5.43602
vt -29.1213 5.43602
f 50/78/12 47/79/12 15/80/12 51/81/12 

vt 18.7183 29.1213
f 35/42/3 51/82/3 15/17/3

f 35/42/3 43/55/3 51/82/3

f 34/41/3 43/55/3 35/42/3

v 28.5608 5.43602 98.8314
vt 28.5608 -98.8314
f 35/42/3 15/17/3 52/83/3

v 28.5608 5.43602 116.548
vt 28.5608 -116.548
f 52/83/3 15/17/3 53/84/3

f 15/17/3 5/19/3 53/84/3

vt -20.6518 1.49902
v 28.5608 1.49902 116.548
vt 28.5608 1.49902
vt 28.5608 5.43602
f 5/77/1 14/85/1 54/86/1 53/87/1 

vn 0 1 -0
vt -20.6518 -122.453
v 28.5608 1.49902 122.453
vt 28.5608 -122.453
f 14/19/13 13/88/13 55/89/13 54/84/13 

v 28.5608 -2.43799 122.453
vt 28.5608 -2.43799
f 13/85/1 12/2/1 56/90/1 55/86/1 

vn 2.25597e-16 1 -0
vt -20.6518 -128.359
v 28.5608 -2.43799 128.359
vt 28.5608 -128.359
f 12/88/14 11/91/14 57/92/14 56/89/14 

vt 28.5608 -6.375
f 57/90/1 11/2/1 10/1/1 48/93/1 

vt -128.359 -6.375
vn 1 0 -0
vt -108.674 -6.375
v 28.5608 -2.43799 108.674
vt -108.674 -2.43799
v 28.5608 -2.43799 102.768
vt -102.768 -2.43799
v 28.5608 1.49902 102.768
vt -102.768 1.49902
v 28.5608 1.49902 98.8314
vt -98.8314 1.49902
vt -98.8314 5.43602
vt -116.548 5.43602
vt -116.548 1.49902
vt -122.453 1.49902
vt -122.453 -2.43799
vt -128.359 -2.43799
f 48/94/15 49/95/15 58/96/15 59/97/15 60/98/15 61/99/15 52/100/15 53/101/15 54/102/15 55/103/15 56/104/15 57/105/15 

v 85.6474 -6.375 108.674
vt 85.6474 -6.375
v 85.6474 -2.43799 108.674
vt 85.6474 -2.43799
f 58/90/1 49/93/1 62/106/1 63/107/1 

vt -85.6474 -108.674
v 85.6474 -6.375 88.9889
vt -85.6474 -88.9889
f 62/108/5 49/73/5 64/109/5

f 49/73/5 25/29/5 64/109/5

v 89.5844 -6.375 -99.9875
vt -89.5844 99.9875
f 64/109/5 25/29/5 65/110/5

vt 99.9875 1.49902
vn 1 -1.15506e-14 -1.15506e-14
vt 99.9875 -6.375
vt 107.862 -6.375
v 89.5844 -2.43799 -107.862
vt 107.862 -2.43799
vt 103.924 -2.43799
vt 103.924 1.49902
f 33/111/16 65/112/16 25/113/16 66/114/16 32/115/16 31/116/16 

v 93.5214 1.49902 -99.9875
vt -93.5214 1.49902
v 93.5214 -2.43799 -99.9875
vt -93.5214 -2.43799
v 97.4584 -2.43799 -99.9875
vt -97.4584 -2.43799
v 97.4584 -6.375 -99.9875
vt -97.4584 -6.375
vt -89.5844 -6.375
f 67/117/7 68/118/7 69/119/7 70/120/7 65/121/7 33/38/7 

v 93.5214 1.49902 88.9889
vt -88.9889 1.49902
v 93.5214 -2.43799 88.9889
vt -88.9889 -2.43799
vt 99.9875 -2.43799
f 71/122/15 72/123/15 68/124/15 67/111/15 

v 97.4584 -6.375 88.9889
vt 97.4584 -6.375
v 97.4584 -2.43799 88.9889
vt 97.4584 -2.43799
vt 93.5214 -2.43799
vt 93.5214 1.49902
v 89.5844 1.49902 88.9889
vt 89.5844 1.49902
v 89.5844 5.43602 88.9889
vt 89.5844 5.43602
v 85.6474 5.43602 88.9889
vt 85.6474 5.43602
f 73/125/1 74/126/1 72/127/1 71/128/1 75/129/1 76/130/1 77/131/1 64/106/1 

vt -88.9889 -6.375
f 73/132/15 70/112/15 69/124/15 74/123/15 

vt -97.4584 -88.9889
vt -97.4584 99.9875
f 73/133/5 65/110/5 70/134/5

f 64/109/5 65/110/5 73/133/5

vt 93.5214 -88.9889
vt 97.4584 -88.9889
vt 97.4584 99.9875
vt 93.5214 99.9875
f 72/135/13 74/136/13 69/137/13 68/138/13 

vt 89.5844 -88.9889
f 75/139/13 71/135/13 67/138/13 33/42/13 

vt -88.9889 5.43602
vt 99.9875 5.43602
f 76/140/15 75/122/15 33/111/15 35/141/15 

vt 85.6474 -88.9889
f 35/42/3 77/142/3 76/139/3

f 35/42/3 52/83/3 77/142/3

v 85.6474 5.43602 98.8314
vt 85.6474 -98.8314
f 77/142/3 52/83/3 78/143/3

v 85.6474 1.49902 98.8314
vt 85.6474 1.49902
f 52/87/1 61/86/1 79/144/1 78/131/1 

vn 1.97592e-15 1 -0
vt 28.5608 -102.768
v 85.6474 1.49902 102.768
vt 85.6474 -102.768
f 61/83/17 60/145/17 80/146/17 79/143/17 

v 85.6474 -2.43799 102.768
f 60/86/1 59/90/1 81/107/1 80/144/1 

vn 1.27579e-15 1 -0
vt 28.5608 -108.674
vt 85.6474 -108.674
f 59/145/18 58/147/18 63/148/18 81/146/18 

f 77/140/15 78/100/15 79/99/15 80/98/15 81/97/15 63/96/15 62/95/15 64/132/15 

f 25/121/7 26/47/7 29/40/7 66/39/7 

vt 89.5844 107.862
vt -91.518 107.862
f 28/44/13 32/43/13 66/149/13 29/150/13 

vt -87.5809 5.43602
vt -91.518 5.43602
vt -91.518 1.49902
v -95.455 1.49902 88.9889
vt -95.455 1.49902
v -95.455 -2.43799 88.9889
vt -95.455 -2.43799
v -99.392 -2.43799 88.9889
vt -99.392 -2.43799
v -99.392 -6.375 88.9889
vt -99.392 -6.375
f 17/151/1 41/152/1 42/153/1 82/154/1 83/155/1 84/156/1 85/157/1 19/4/1 

vt -95.455 99.9875
vt -95.455 -88.9889
f 42/54/13 30/41/13 40/158/13 82/159/13 

vt -99.9875 -2.43799
vt 88.9889 -2.43799
f 82/53/4 40/36/4 39/160/4 83/161/4 

vn 5.63993e-17 1 -1.17499e-18
vt -99.392 99.9875
vt -99.392 -88.9889
f 83/159/19 39/158/19 38/162/19 84/163/19 

f 37/35/4 85/23/4 84/161/4 38/160/4 

vt 99.392 -88.9889
vt 99.392 99.9875
f 24/28/5 85/164/5 37/165/5

f 85/164/5 24/28/5 19/25/5

vt -20.6518 -108.674
vt -20.6518 -102.768
vt -87.5809 -102.768
vt -87.5809 -108.674
f 2/166/13 9/167/13 20/168/13 3/169/13 

vt -87.5809 1.49902
f 9/2/1 8/85/1 21/170/1 20/3/1 

f 8/167/13 7/18/13 22/22/13 21/168/13 

f 7/85/1 6/77/1 18/151/1 22/170/1 

