# Alias OBJ Model File
# Exported from SketchUp, (c) 2000-2012 Trimble Navigation Limited
# File units = inches

mtllib Tangga.mtl

g Mesh1 Model

usemtl M_0132_LightGray
v -20.1473 5.18602 -31.1574
vt 6.00975 4.09926
vn 1.51022e-16 1 -2.20917e-17
v -20.1473 5.18602 -31.9448
vt 6.00975 4.1126
v -20.1473 5.18602 7.42527
vt 6.00975 3.44593
f 1/1/1 2/2/1 3/3/1

v -20.1473 -6.625 -31.1574
vt 4.09926 0
vn 1 0 -7.21911e-14
v -20.1473 -6.625 -31.9448
vt 4.1126 0
vt 4.1126 0.2
vt 4.09926 0.2
f 4/4/2 5/5/2 2/6/2 1/7/2 

vt -6.00975 4.09926
vn -1.75567e-16 -1 -1.01238e-16
v -20.1473 -6.625 7.42527
vt -6.00975 3.44593
vt -6.00975 4.1126
f 4/8/3 6/9/3 5/10/3

vt 3.44593 0
vn 1 0 1.47329e-15
vt 3.44593 0.2
f 6/11/4 4/4/4 1/7/4 3/12/4 

v 19.2228 -6.625 7.42527
vt -6.67641 0
vn 0 0 -1
vt -6.00975 0
vt -6.00975 0.2
v 19.2228 5.18602 7.42527
vt -6.67641 0.2
f 7/13/5 6/14/5 3/15/5 8/16/5 

v -20.1473 -6.625 105.85
vt -6.00975 1.77926
vt -6.67641 3.44593
f 9/17/3 6/9/3 7/18/3

v -87.0764 -6.625 105.85
vt -4.87641 1.77926
f 10/19/3 6/9/3 9/17/3

f 6/9/3 10/19/3 5/10/3

v -87.0764 -6.625 86.1654
vt -4.87641 2.1126
f 11/20/3 5/10/3 10/19/3

v -91.0134 -6.625 -102.811
vt -4.80975 5.3126
f 12/21/3 5/10/3 11/20/3

v 90.0889 -6.625 -110.685
vt -7.87641 5.44593
f 12/21/3 13/22/3 5/10/3

v -91.0134 -6.625 -110.685
vt -4.80975 5.44593
f 13/22/3 12/21/3 14/23/3

v -91.0134 1.24902 -106.748
vt -5.37926 0.133333
vn -1 4.38922e-13 4.38922e-13
v -91.0134 -2.68799 -106.748
vt -5.37926 0.0666667
v -91.0134 -2.68799 -110.685
vt -5.44593 0.0666667
vt -5.44593 2.34626e-12
vt -5.3126 2.34626e-12
v -91.0134 1.24902 -102.811
vt -5.3126 0.133333
f 15/24/6 16/25/6 17/26/6 14/27/6 12/28/6 18/29/6 

vt -4.80975 0.133333
v 90.0889 1.24902 -106.748
vt -7.87641 0.133333
v 90.0889 -2.68799 -106.748
vt -7.87641 0.0666667
vt -4.80975 0.0666667
f 15/30/5 19/31/5 20/32/5 16/33/5 

vt 4.80975 5.3126
vn -2.45214e-18 1 1.12799e-16
v 90.0889 1.24902 -102.811
vt 7.87641 5.3126
vt 7.87641 5.37926
vt 4.80975 5.37926
f 18/34/7 21/35/7 19/36/7 15/37/7 

v -91.0134 5.18602 -102.811
vt -4.80975 0.2
v 90.0889 5.18602 -102.811
vt -7.87641 0.2
v -91.0134 1.24902 -102.811
vt -4.80975 0
v -98.8875 -6.625 -102.811
vt -4.67641 0
v -98.8875 -2.68799 -102.811
vt -4.67641 0.0666667
v -94.9505 -2.68799 -102.811
vt -4.74308 0.0666667
v -94.9505 1.24902 -102.811
vt -4.74308 0.133333
f 18/30/5 22/38/5 23/39/5 21/31/5 24/30/5 12/40/5 25/41/5 26/42/5 27/43/5 28/44/5 

v -91.0134 5.18602 86.1654
vt -2.1126 0.2
vn -1 0 -0
vt -5.3126 0.2
v -91.0134 1.24902 86.1654
vt -2.1126 0.133333
f 29/45/8 22/46/8 18/29/8 30/47/8 

v -87.0764 5.18602 86.1654
vt 4.87641 2.1126
vt 4.80975 2.1126
f 31/48/1 22/34/1 29/49/1

f 22/34/1 31/48/1 2/2/1

f 2/2/1 31/48/1 3/3/1

v -20.1473 5.18602 96.0079
vt 6.00975 1.94593
f 31/48/1 32/50/1 3/3/1

v -87.0764 5.18602 96.0079
vt 4.87641 1.94593
f 32/50/1 31/48/1 33/51/1

vt -2.1126 0
vt -1.77926 0
v -87.0764 -2.68799 105.85
vt -1.77926 0.0666667
v -87.0764 -2.68799 99.945
vt -1.87926 0.0666667
v -87.0764 1.24902 99.945
vt -1.87926 0.133333
v -87.0764 1.24902 96.0079
vt -1.94593 0.133333
vt -1.94593 0.2
f 11/52/8 10/53/8 34/54/8 35/55/8 36/56/8 37/57/8 33/58/8 31/45/8 

vt 6.00975 0
vn 0 0 1
v -20.1473 -2.68799 105.85
vt 6.00975 0.0666667
vt 4.87641 0.0666667
vt 4.87641 0
f 9/59/9 38/60/9 34/61/9 10/62/9 

v -20.1473 5.18602 113.724
vt -1.64593 0.2
vn -1 4.31324e-15 2.34439e-15
v -20.1473 1.24902 96.0079
v -20.1473 1.24902 99.945
v -20.1473 -2.68799 99.945
vt -1.77926 2.59376e-14
v -20.1473 -6.625 125.536
vt -1.44593 2.59376e-14
v -20.1473 -2.68799 125.536
vt -1.44593 0.0666667
v -20.1473 -2.68799 119.63
vt -1.54593 0.0666667
v -20.1473 1.24902 119.63
vt -1.54593 0.133333
v -20.1473 1.24902 113.724
vt -1.64593 0.133333
f 39/63/10 32/58/10 40/57/10 41/56/10 42/55/10 38/54/10 9/64/10 43/65/10 44/66/10 45/67/10 46/68/10 47/69/10 

vt 6.67641 3.44593
vt 6.00975 1.64593
f 8/70/1 32/50/1 39/71/1

f 3/3/1 32/50/1 8/70/1

v 29.0653 5.18602 113.724
vt 6.84308 1.64593
f 8/70/1 39/71/1 48/72/1

vt 6.00975 0.2
vt 6.00975 0.133333
v 29.0653 1.24902 113.724
vt 6.84308 0.133333
vt 6.84308 0.2
f 39/73/9 47/74/9 49/75/9 48/76/9 

vn 0 1 -0
vt 6.00975 1.54593
v 29.0653 1.24902 119.63
vt 6.84308 1.54593
f 47/71/11 46/77/11 50/78/11 49/72/11 

v 29.0653 -2.68799 119.63
vt 6.84308 0.0666667
f 46/74/9 45/60/9 51/79/9 50/75/9 

vn 2.34621e-16 1 -0
vt 6.00975 1.44593
v 29.0653 -2.68799 125.536
vt 6.84308 1.44593
f 45/77/12 44/80/12 52/81/12 51/78/12 

v 29.0653 -6.625 125.536
vt 6.84308 -1.80411e-16
f 52/79/9 44/60/9 43/59/9 53/82/9 

vt -6.00975 1.44593
vt -6.84308 1.44593
f 43/83/3 7/18/3 53/84/3

f 9/17/3 7/18/3 43/83/3

v 29.0653 -6.625 105.85
vt -6.84308 1.77926
f 53/84/3 7/18/3 54/85/3

f 7/18/3 13/22/3 54/85/3

v 19.2228 -6.625 -31.9448
vt -6.67641 4.1126
f 55/86/3 13/22/3 7/18/3

f 5/10/3 13/22/3 55/86/3

vn -5.77529e-15 0 1
vt 6.67641 0
v 19.2228 5.18602 -31.9448
vt 6.67641 0.2
f 5/59/13 55/87/13 56/88/13 2/73/13 

vt -4.1126 0
vn -1 0 1.44382e-15
vt -3.44593 0
vt -3.44593 0.2
vt -4.1126 0.2
f 55/89/14 7/90/14 8/91/14 56/92/14 

vt 6.67641 4.1126
f 23/35/1 56/93/1 8/70/1

f 23/35/1 2/2/1 56/93/1

f 22/34/1 2/2/1 23/35/1

v 29.0653 5.18602 96.0079
vt 6.84308 1.94593
f 23/35/1 8/70/1 57/94/1

f 57/94/1 8/70/1 48/72/1

vt 1.44593 -1.80411e-16
vn 1 0 -0
vt 1.77926 -1.52656e-16
v 29.0653 -2.68799 105.85
vt 1.77926 0.0666667
v 29.0653 -2.68799 99.945
vt 1.87926 0.0666667
v 29.0653 1.24902 99.945
vt 1.87926 0.133333
v 29.0653 1.24902 96.0079
vt 1.94593 0.133333
vt 1.94593 0.2
vt 1.64593 0.2
vt 1.64593 0.133333
vt 1.54593 0.133333
vt 1.54593 0.0666667
vt 1.44593 0.0666667
f 53/95/15 54/96/15 58/97/15 59/98/15 60/99/15 61/100/15 57/101/15 48/102/15 49/103/15 50/104/15 51/105/15 52/106/15 

vt 6.84308 -1.52656e-16
v 86.1519 -6.625 105.85
vt 7.80975 -1.77636e-15
v 86.1519 -2.68799 105.85
vt 7.80975 0.0666667
f 58/79/9 54/107/9 62/108/9 63/109/9 

vt -7.80975 1.77926
v 86.1519 -6.625 86.1654
vt -7.80975 2.1126
f 62/110/3 54/85/3 64/111/3

f 54/85/3 13/22/3 64/111/3

v 90.0889 -6.625 -102.811
vt -7.87641 5.3126
f 64/111/3 13/22/3 65/112/3

vt 5.3126 0.133333
vn 1 -1.15506e-14 -1.15506e-14
vt 5.3126 9.71584e-14
vt 5.44593 9.71584e-14
v 90.0889 -2.68799 -110.685
vt 5.44593 0.0666667
vt 5.37926 0.0666667
vt 5.37926 0.133333
f 21/113/16 65/114/16 13/115/16 66/116/16 20/117/16 19/118/16 

v 94.0259 1.24902 -102.811
vt -7.94308 0.133333
v 94.0259 -2.68799 -102.811
vt -7.94308 0.0666667
v 97.9629 -2.68799 -102.811
vt -8.00975 0.0666667
v 97.9629 -6.625 -102.811
vt -8.00975 0
vt -7.87641 0
f 67/119/5 68/120/5 69/121/5 70/122/5 65/123/5 21/31/5 

v 94.0259 1.24902 86.1654
vt 2.1126 0.133333
v 94.0259 -2.68799 86.1654
vt 2.1126 0.0666667
vt 5.3126 0.0666667
f 71/124/15 72/125/15 68/126/15 67/113/15 

v 97.9629 -6.625 86.1654
vt 8.00975 0
v 97.9629 -2.68799 86.1654
vt 8.00975 0.0666667
vt 7.94308 0.0666667
vt 7.94308 0.133333
v 90.0889 1.24902 86.1654
vt 7.87641 0.133333
v 90.0889 5.18602 86.1654
vt 7.87641 0.2
v 86.1519 5.18602 86.1654
vt 7.80975 0.2
f 73/127/9 74/128/9 72/129/9 71/130/9 75/131/9 76/132/9 77/133/9 64/108/9 

vt 2.1126 0
vt 5.3126 0
f 73/134/15 70/135/15 69/126/15 74/125/15 

vt -8.00975 2.1126
vt -8.00975 5.3126
f 73/136/3 65/112/3 70/137/3

f 64/111/3 65/112/3 73/136/3

vt 7.94308 2.1126
vt 8.00975 2.1126
vt 8.00975 5.3126
vt 7.94308 5.3126
f 72/138/11 74/139/11 69/140/11 68/141/11 

vt 7.87641 2.1126
f 75/142/11 71/138/11 67/141/11 21/35/11 

vt 2.1126 0.2
vt 5.3126 0.2
f 76/143/15 75/124/15 21/113/15 23/144/15 

vt 7.80975 2.1126
f 23/35/1 77/145/1 76/142/1

f 23/35/1 57/94/1 77/145/1

v 86.1519 5.18602 96.0079
vt 7.80975 1.94593
f 77/145/1 57/94/1 78/146/1

v 86.1519 1.24902 96.0079
vt 7.80975 0.133333
f 57/76/9 61/75/9 79/147/9 78/133/9 

vn 1.97592e-15 1 -0
vt 6.84308 1.87926
v 86.1519 1.24902 99.945
vt 7.80975 1.87926
f 61/94/17 60/148/17 80/149/17 79/146/17 

v 86.1519 -2.68799 99.945
f 60/75/9 59/79/9 81/109/9 80/147/9 

vn 1.27579e-15 1 -0
vt 6.84308 1.77926
vt 7.80975 1.77926
f 59/148/18 58/150/18 63/151/18 81/149/18 

vt 1.77926 8.63198e-15
vt 2.1126 8.63198e-15
f 77/143/15 78/101/15 79/100/15 80/99/15 81/98/15 63/97/15 62/152/15 64/153/15 

f 13/123/5 14/40/5 17/33/5 66/32/5 

vt 7.87641 5.44593
vt 4.80975 5.44593
f 16/37/11 20/36/11 66/154/11 17/155/11 

vt 4.87641 0.2
vt 4.87641 0.133333
f 40/74/9 32/73/9 33/156/9 37/157/9 

vt 6.00975 1.87926
vt 4.87641 1.87926
f 41/158/11 40/50/11 37/51/11 36/159/11 

f 42/60/9 41/74/9 36/157/9 35/61/9 

vt 6.00975 1.77926
vt 4.87641 1.77926
f 38/160/11 42/158/11 35/159/11 34/161/11 

vt 4.80975 0.2
vt 4.80975 0.133333
v -94.9505 1.24902 86.1654
vt 4.74308 0.133333
v -94.9505 -2.68799 86.1654
vt 4.74308 0.0666667
v -98.8875 -2.68799 86.1654
vt 4.67641 0.0666667
v -98.8875 -6.625 86.1654
vt 4.67641 0
f 31/156/9 29/162/9 30/163/9 82/164/9 83/165/9 84/166/9 85/167/9 11/62/9 

vt 4.74308 5.3126
vt 4.74308 2.1126
f 30/49/11 18/34/11 28/168/11 82/169/11 

vt -5.3126 0.0666667
vt -2.1126 0.0666667
f 82/47/8 28/29/8 27/170/8 83/171/8 

vn 1.12799e-16 1 -2.34997e-18
vt 4.67641 5.3126
vt 4.67641 2.1126
f 83/169/19 27/168/19 26/172/19 84/173/19 

vt -5.3126 0
f 25/174/8 85/52/8 84/171/8 26/170/8 

vt -4.67641 2.1126
vt -4.67641 5.3126
f 12/21/3 85/175/3 25/176/3

f 85/175/3 12/21/3 11/20/3

